<svg width="141" height="26" viewBox="0 0 141 26" fill="none" xmlns="http://www.w3.org/2000/svg">
<path d="M0 5.64C0 2.52511 2.52511 0 5.64 0H135.36C138.475 0 141 2.52511 141 5.64V19.74C141 22.8549 138.475 25.38 135.36 25.38H5.64C2.52512 25.38 0 22.8549 0 19.74V5.64Z" fill="#F4F4F5"/>
<path d="M2.82001 7.05001C2.82001 4.71384 4.71384 2.82001 7.05001 2.82001H43.71C46.0462 2.82001 47.94 4.71384 47.94 7.05001V18.33C47.94 20.6662 46.0462 22.56 43.71 22.56H7.05001C4.71384 22.56 2.82001 20.6662 2.82001 18.33V7.05001Z" fill="#F4F4F5"/>
<g clip-path="url(#clip0_1_2928)">
<path fill-rule="evenodd" clip-rule="evenodd" d="M22.6668 8.91663C22.6668 7.95013 23.4503 7.16663 24.4168 7.16663H25.5834C26.5499 7.16663 27.3334 7.95013 27.3334 8.91663V9.59954C27.5159 9.53505 27.7122 9.49996 27.9168 9.49996H29.0834C30.0499 9.49996 30.8334 10.2835 30.8334 11.25V17.0833C30.8334 18.0498 30.0499 18.8333 29.0834 18.8333H20.9168C19.9503 18.8333 19.1668 18.0498 19.1668 17.0833V13.5833C19.1668 12.6168 19.9503 11.8333 20.9168 11.8333H22.0834C22.288 11.8333 22.4843 11.8684 22.6668 11.9329V8.91663ZM23.8334 17.6666H26.1668V8.91663C26.1668 8.59446 25.9056 8.33329 25.5834 8.33329H24.4168C24.0946 8.33329 23.8334 8.59446 23.8334 8.91663V17.6666ZM27.3334 17.6666H29.0834C29.4056 17.6666 29.6668 17.4055 29.6668 17.0833V11.25C29.6668 10.9278 29.4056 10.6666 29.0834 10.6666H27.9168C27.5946 10.6666 27.3334 10.9278 27.3334 11.25V17.6666ZM22.6668 17.6666V13.5833C22.6668 13.2611 22.4056 13 22.0834 13H20.9168C20.5946 13 20.3334 13.2611 20.3334 13.5833V17.0833C20.3334 17.4055 20.5946 17.6666 20.9168 17.6666H22.6668Z" fill="#71717A"/>
</g>
<path d="M47.94 7.05001C47.94 4.71384 49.8338 2.82001 52.17 2.82001H88.83C91.1662 2.82001 93.06 4.71384 93.06 7.05001V18.33C93.06 20.6662 91.1662 22.56 88.83 22.56H52.17C49.8338 22.56 47.94 20.6662 47.94 18.33V7.05001Z" fill="#F4F4F5"/>
<g clip-path="url(#clip1_1_2928)">
<path fill-rule="evenodd" clip-rule="evenodd" d="M65.9168 8.33329C65.5946 8.33329 65.3334 8.59446 65.3334 8.91663V17.0833C65.3334 17.4055 65.5946 17.6666 65.9168 17.6666H74.0834C74.4056 17.6666 74.6668 17.4055 74.6668 17.0833V8.91663C74.6668 8.59446 74.4056 8.33329 74.0834 8.33329H65.9168ZM64.1668 8.91663C64.1668 7.95013 64.9503 7.16663 65.9168 7.16663H74.0834C75.0499 7.16663 75.8334 7.95013 75.8334 8.91663V17.0833C75.8334 18.0498 75.0499 18.8333 74.0834 18.8333H65.9168C64.9503 18.8333 64.1668 18.0498 64.1668 17.0833V8.91663ZM73.3293 10.8375C73.5571 11.0653 73.5571 11.4346 73.3293 11.6624L71.5793 13.4124C71.4699 13.5218 71.3215 13.5833 71.1668 13.5833H69.0751L67.4959 15.1624C67.2681 15.3902 66.8988 15.3902 66.671 15.1624C66.4432 14.9346 66.4432 14.5653 66.671 14.3375L68.421 12.5875C68.5304 12.4781 68.6787 12.4166 68.8334 12.4166H70.9252L72.5043 10.8375C72.7321 10.6097 73.1015 10.6097 73.3293 10.8375Z" fill="#71717A"/>
</g>
<g filter="url(#filter0_dd_1_2928)">
<path d="M93.06 7.05001C93.06 4.71384 94.9538 2.82001 97.29 2.82001H133.95C136.286 2.82001 138.18 4.71384 138.18 7.05001V18.33C138.18 20.6662 136.286 22.56 133.95 22.56H97.29C94.9538 22.56 93.06 20.6662 93.06 18.33V7.05001Z" fill="white" shape-rendering="crispEdges"/>
<g clip-path="url(#clip2_1_2928)">
<path fill-rule="evenodd" clip-rule="evenodd" d="M115.417 8.3694C113.115 8.65645 111.333 10.6202 111.333 13C111.333 15.5773 113.423 17.6666 116 17.6666C117.078 17.6666 118.071 17.3008 118.861 16.6865L115.587 13.4124C115.478 13.303 115.417 13.1547 115.417 13V8.3694ZM116.583 8.36989V12.1206L120.039 10.662C119.852 10.34 119.628 10.0409 119.37 9.77145C119.325 9.72469 119.279 9.67886 119.232 9.634C119.109 9.5152 118.978 9.40286 118.841 9.29764C118.181 8.79149 117.401 8.47295 116.583 8.36989ZM120.492 11.7368L117.025 13.2003L119.686 15.8614C120.066 15.372 120.346 14.8101 120.508 14.2078C120.614 13.8122 120.667 13.4061 120.667 13C120.667 12.5939 120.614 12.1878 120.508 11.7921C120.503 11.7736 120.498 11.7552 120.492 11.7368ZM121.833 13C121.833 16.2216 119.222 18.8333 116 18.8333C112.778 18.8333 110.167 16.2216 110.167 13C110.167 9.7783 112.778 7.16663 116 7.16663C117.567 7.16663 118.991 7.78498 120.039 8.79108C120.068 8.81882 120.096 8.84685 120.125 8.87517C120.166 8.91615 120.206 8.95773 120.246 8.9999C121.23 10.0442 121.833 11.4517 121.833 13Z" fill="#09090B"/>
</g>
</g>
<defs>
<filter id="filter0_dd_1_2928" x="90.945" y="1.41001" width="49.35" height="23.97" filterUnits="userSpaceOnUse" color-interpolation-filters="sRGB">
<feFlood flood-opacity="0" result="BackgroundImageFix"/>
<feColorMatrix in="SourceAlpha" type="matrix" values="0 0 0 0 0 0 0 0 0 0 0 0 0 0 0 0 0 0 127 0" result="hardAlpha"/>
<feOffset dy="0.705"/>
<feGaussianBlur stdDeviation="1.0575"/>
<feComposite in2="hardAlpha" operator="out"/>
<feColorMatrix type="matrix" values="0 0 0 0 0 0 0 0 0 0 0 0 0 0 0 0 0 0 0.1 0"/>
<feBlend mode="normal" in2="BackgroundImageFix" result="effect1_dropShadow_1_2928"/>
<feColorMatrix in="SourceAlpha" type="matrix" values="0 0 0 0 0 0 0 0 0 0 0 0 0 0 0 0 0 0 127 0" result="hardAlpha"/>
<feMorphology radius="0.705" operator="erode" in="SourceAlpha" result="effect2_dropShadow_1_2928"/>
<feOffset dy="0.705"/>
<feGaussianBlur stdDeviation="0.705"/>
<feComposite in2="hardAlpha" operator="out"/>
<feColorMatrix type="matrix" values="0 0 0 0 0 0 0 0 0 0 0 0 0 0 0 0 0 0 0.1 0"/>
<feBlend mode="normal" in2="effect1_dropShadow_1_2928" result="effect2_dropShadow_1_2928"/>
<feBlend mode="normal" in="SourceGraphic" in2="effect2_dropShadow_1_2928" result="shape"/>
</filter>
<clipPath id="clip0_1_2928">
<rect width="14.1" height="14.1" fill="white" transform="translate(18.3301 5.64008)"/>
</clipPath>
<clipPath id="clip1_1_2928">
<rect width="14.1" height="14.1" fill="white" transform="translate(63.4501 5.64008)"/>
</clipPath>
<clipPath id="clip2_1_2928">
<rect width="14.1" height="14.1" fill="white" transform="translate(108.57 5.64008)"/>
</clipPath>
</defs>
</svg>
