<svg width="641" height="456" viewBox="0 0 641 456" fill="none" xmlns="http://www.w3.org/2000/svg">
<g clip-path="url(#clip0_1_2943)">
<rect x="1.5" y="0.5" width="639" height="455" rx="5.5" fill="#F8F8FF" stroke="#E0DFF8"/>
<g filter="url(#filter0_d_1_2943)">
<rect x="228" y="121" width="190" height="190" rx="15" fill="white"/>
<rect x="228.5" y="121.5" width="189" height="189" rx="14.5" stroke="#E6E6E6"/>
</g>
<circle cx="385" cy="143" r="2" fill="#D9D9D9"/>
<circle cx="392" cy="143" r="2" fill="#D9D9D9"/>
<circle cx="399" cy="143" r="2" fill="#D9D9D9"/>
<path d="M253.286 138.19H258.973V139.301C257.488 141.127 256.487 143.382 256.542 146H255.123C255.123 143.569 256.08 141.27 257.609 139.411H253.286V138.19ZM265.313 138.19V146H264.026L263.993 145.175C263.663 145.78 263.058 146.132 262.2 146.132C260.55 146.132 259.736 144.746 259.736 143.085C259.736 141.424 260.55 140.038 262.2 140.038C263.014 140.038 263.608 140.357 263.949 140.951V138.19H265.313ZM261.133 143.085C261.133 144.086 261.573 145.01 262.585 145.01C263.608 145.01 264.037 144.086 264.037 143.085C264.037 142.04 263.608 141.116 262.585 141.116C261.562 141.116 261.133 142.04 261.133 143.085Z" fill="#5E5ADB"/>
<path d="M291.902 139.466C292.782 139.466 293.167 139.081 293.167 138.19H294.08V146H292.925V140.401H291.286V139.466H291.902ZM300.495 138.19V143.382H301.375V144.46H300.495V146H299.329V144.46H295.325V143.382L299.197 138.19H300.495ZM296.689 143.382H299.329V139.851L296.689 143.382ZM307.53 138.19V146H306.463L306.43 145.186C306.111 145.78 305.495 146.132 304.615 146.132C302.943 146.132 302.151 144.713 302.151 143.085C302.151 141.457 302.943 140.038 304.615 140.038C305.451 140.038 306.045 140.346 306.386 140.929V138.19H307.53ZM303.339 143.085C303.339 144.13 303.79 145.131 304.901 145.131C306.023 145.131 306.474 144.13 306.474 143.085C306.474 142.007 306.023 141.006 304.901 141.006C303.779 141.006 303.339 141.996 303.339 143.085Z" fill="#BBBBBB"/>
<path d="M326.344 141.358C327.026 141.369 327.829 141.05 327.829 140.115C327.829 139.488 327.257 139.092 326.344 139.092C325.585 139.092 325.057 139.455 324.969 140.027L323.759 139.961C323.902 138.817 324.969 138.014 326.355 138.014C327.95 138.014 329.039 138.839 329.039 140.049C329.039 140.929 328.533 141.512 327.554 141.776C328.687 142.084 329.303 142.832 329.303 143.855C329.303 145.23 328.104 146.176 326.355 146.176C324.738 146.176 323.583 145.252 323.517 143.91L324.716 143.844C324.793 144.735 325.64 145.098 326.355 145.098C327.213 145.098 328.104 144.702 328.104 143.723C328.104 142.755 327.202 142.326 326.344 142.348L325.728 142.359V141.347L326.344 141.358ZM333.624 146.176C331.666 146.176 330.467 144.592 330.467 142.106C330.467 139.598 331.666 138.014 333.624 138.014C335.593 138.014 336.792 139.598 336.792 142.106C336.792 144.592 335.593 146.176 333.624 146.176ZM331.677 142.106C331.677 144.031 332.37 145.098 333.624 145.098C334.889 145.098 335.582 144.031 335.582 142.106C335.582 140.17 334.889 139.092 333.624 139.092C332.37 139.092 331.677 140.17 331.677 142.106ZM343.183 138.19V146H342.116L342.083 145.186C341.764 145.78 341.148 146.132 340.268 146.132C338.596 146.132 337.804 144.713 337.804 143.085C337.804 141.457 338.596 140.038 340.268 140.038C341.104 140.038 341.698 140.346 342.039 140.929V138.19H343.183ZM338.992 143.085C338.992 144.13 339.443 145.131 340.554 145.131C341.676 145.131 342.127 144.13 342.127 143.085C342.127 142.007 341.676 141.006 340.554 141.006C339.432 141.006 338.992 141.996 338.992 143.085Z" fill="#BBBBBB"/>
<path d="M256.96 193.19C258.599 193.19 259.622 194.092 259.622 195.544C259.622 196.479 258.995 197.161 258.28 197.359C259.061 197.491 259.402 197.887 259.479 198.701L259.688 201H258.753L258.566 198.789C258.5 198.085 258.016 197.843 256.872 197.843H254.936V201H254.012V193.19H256.96ZM254.936 196.941H256.96C258.049 196.941 258.654 196.435 258.654 195.522C258.654 194.609 258.049 194.092 256.96 194.092H254.936V196.941ZM260.725 198.085C260.725 196.237 261.77 195.038 263.387 195.038C264.685 195.038 265.818 195.907 265.917 197.964L265.928 198.371H261.682C261.77 199.57 262.375 200.274 263.387 200.274C264.025 200.274 264.597 199.9 264.861 199.284L265.829 199.35C265.488 200.45 264.509 201.132 263.387 201.132C261.77 201.132 260.725 199.933 260.725 198.085ZM261.704 197.568H264.938C264.773 196.336 264.113 195.896 263.387 195.896C262.452 195.896 261.847 196.512 261.704 197.568ZM271.853 201H270.995V200.01C270.698 200.769 270.005 201.132 269.235 201.132C267.937 201.132 267.299 200.153 267.299 198.921V195.17H268.201V198.646C268.201 199.735 268.564 200.329 269.422 200.329C270.346 200.329 270.951 199.735 270.951 198.646V195.17H271.853V201ZM277.033 196.963C276.901 196.292 276.241 195.896 275.581 195.896C274.921 195.896 274.393 196.237 274.393 196.798C274.404 197.37 275.141 197.612 275.801 197.755C277.132 198.008 278.089 198.382 278.089 199.515C278.089 200.637 276.934 201.132 275.823 201.132C274.448 201.132 273.392 200.373 273.304 199.174L274.25 199.108C274.36 199.812 274.932 200.274 275.823 200.274C276.417 200.274 277.143 200.076 277.143 199.471C277.143 198.767 276.307 198.69 275.636 198.525C274.558 198.272 273.458 197.964 273.458 196.853C273.447 195.742 274.349 195.038 275.68 195.038C276.846 195.038 277.792 195.775 277.979 196.897L277.033 196.963ZM280.071 199.46C280.071 199.933 280.478 200.417 281.336 200.373C282.304 200.329 283.063 199.68 283.063 198.591V198.184L281.666 198.437C280.797 198.602 280.071 198.613 280.071 199.46ZM279.125 199.46C279.125 198.239 280.049 197.931 281.314 197.7L283.041 197.392C283.041 196.402 282.48 195.896 281.6 195.896C280.874 195.896 280.346 196.336 280.203 196.963L279.224 196.886C279.455 195.775 280.39 195.038 281.6 195.038C283.008 195.038 283.943 195.852 283.943 197.48V201H283.129L283.096 200.054C282.843 200.626 282.139 201.11 281.215 201.132C280.06 201.11 279.125 200.494 279.125 199.46ZM285.743 193.19H286.645V195.962C286.975 195.368 287.591 195.038 288.449 195.038C290.132 195.038 290.913 196.468 290.913 198.085C290.913 199.702 290.132 201.132 288.449 201.132C287.547 201.132 286.92 200.758 286.59 200.142L286.557 201H285.743V193.19ZM286.568 198.085C286.568 199.196 287.063 200.274 288.262 200.274C289.483 200.274 289.967 199.218 289.967 198.085C289.967 196.919 289.483 195.863 288.262 195.863C287.063 195.863 286.568 196.93 286.568 198.085ZM292.382 193.19H293.284V199.834C293.284 200.087 293.405 200.197 293.658 200.197H294.153V201H293.526C292.833 201 292.382 200.549 292.382 199.878V193.19ZM295.003 198.085C295.003 196.237 296.048 195.038 297.665 195.038C298.963 195.038 300.096 195.907 300.195 197.964L300.206 198.371H295.96C296.048 199.57 296.653 200.274 297.665 200.274C298.303 200.274 298.875 199.9 299.139 199.284L300.107 199.35C299.766 200.45 298.787 201.132 297.665 201.132C296.048 201.132 295.003 199.933 295.003 198.085ZM295.982 197.568H299.216C299.051 196.336 298.391 195.896 297.665 195.896C296.73 195.896 296.125 196.512 295.982 197.568Z" fill="#474747" fill-opacity="0.65"/>
<path d="M254.012 211.19H255.299L259.171 217.911V211.19H260.095V219H258.753L254.936 212.389V219H254.012V211.19ZM262.465 217.46C262.465 217.933 262.872 218.417 263.73 218.373C264.698 218.329 265.457 217.68 265.457 216.591V216.184L264.06 216.437C263.191 216.602 262.465 216.613 262.465 217.46ZM261.519 217.46C261.519 216.239 262.443 215.931 263.708 215.7L265.435 215.392C265.435 214.402 264.874 213.896 263.994 213.896C263.268 213.896 262.74 214.336 262.597 214.963L261.618 214.886C261.849 213.775 262.784 213.038 263.994 213.038C265.402 213.038 266.337 213.852 266.337 215.48V219H265.523L265.49 218.054C265.237 218.626 264.533 219.11 263.609 219.132C262.454 219.11 261.519 218.494 261.519 217.46ZM268.451 211.85H269.353V213.17H270.904V213.973H269.353V217.46C269.353 217.955 269.595 218.197 270.057 218.197H270.893V219H270.057C269.023 219 268.451 218.45 268.451 217.46V213.973H267.593V213.17H268.451V211.85ZM276.837 219H275.979V218.01C275.682 218.769 274.989 219.132 274.219 219.132C272.921 219.132 272.283 218.153 272.283 216.921V213.17H273.185V216.646C273.185 217.735 273.548 218.329 274.406 218.329C275.33 218.329 275.935 217.735 275.935 216.646V213.17H276.837V219ZM278.706 213.17H279.498L279.531 214.248C279.729 213.511 280.169 213.17 280.928 213.17H281.489V213.962H280.928C280.037 213.962 279.608 214.512 279.608 215.524V219H278.706V213.17ZM283.133 217.46C283.133 217.933 283.54 218.417 284.398 218.373C285.366 218.329 286.125 217.68 286.125 216.591V216.184L284.728 216.437C283.859 216.602 283.133 216.613 283.133 217.46ZM282.187 217.46C282.187 216.239 283.111 215.931 284.376 215.7L286.103 215.392C286.103 214.402 285.542 213.896 284.662 213.896C283.936 213.896 283.408 214.336 283.265 214.963L282.286 214.886C282.517 213.775 283.452 213.038 284.662 213.038C286.07 213.038 287.005 213.852 287.005 215.48V219H286.191L286.158 218.054C285.905 218.626 285.201 219.11 284.277 219.132C283.122 219.11 282.187 218.494 282.187 217.46ZM288.676 211.19H289.578V217.834C289.578 218.087 289.699 218.197 289.952 218.197H290.447V219H289.82C289.127 219 288.676 218.549 288.676 217.878V211.19Z" fill="#474747" fill-opacity="0.65"/>
<path d="M260.216 235.536C259.93 237.065 258.852 238.176 257.07 238.176C254.826 238.176 253.539 236.383 253.539 234.106C253.539 231.818 254.815 230.014 257.07 230.014C258.709 230.014 259.809 231.048 260.15 232.478L259.182 232.544C258.929 231.576 258.203 230.916 257.07 230.916C255.288 230.916 254.507 232.39 254.507 234.106C254.507 235.811 255.299 237.274 257.07 237.274C258.258 237.274 259.006 236.526 259.226 235.47L260.216 235.536ZM263.881 238.132C262.264 238.132 261.219 236.933 261.219 235.085C261.219 233.237 262.264 232.038 263.881 232.038C265.498 232.038 266.543 233.237 266.543 235.085C266.543 236.933 265.498 238.132 263.881 238.132ZM262.165 235.085C262.165 236.449 262.792 237.274 263.881 237.274C264.959 237.274 265.597 236.449 265.597 235.085C265.597 233.721 264.959 232.896 263.881 232.896C262.792 232.896 262.165 233.721 262.165 235.085ZM267.943 232.17H268.768L268.801 233.16C269.065 232.445 269.67 232.038 270.484 232.038C271.32 232.038 271.925 232.489 272.178 233.27C272.431 232.478 273.047 232.038 273.96 232.038C275.126 232.038 275.808 232.852 275.808 234.249V238H274.906V234.513C274.906 233.446 274.488 232.841 273.773 232.841C272.86 232.841 272.332 233.457 272.332 234.524V238H271.43V234.513C271.43 233.468 271.001 232.841 270.297 232.841C269.395 232.841 268.845 233.479 268.845 234.513V238H267.943V232.17ZM277.396 239.65V232.17H278.21L278.243 233.061C278.562 232.401 279.2 232.038 280.047 232.038C281.785 232.038 282.566 233.468 282.566 235.085C282.566 236.702 281.785 238.132 280.047 238.132C279.233 238.132 278.617 237.791 278.298 237.164V239.65H277.396ZM278.199 235.085C278.199 236.196 278.705 237.263 279.893 237.263C281.103 237.263 281.598 236.218 281.598 235.085C281.598 233.952 281.103 232.896 279.893 232.896C278.705 232.896 278.199 233.974 278.199 235.085ZM286.257 238.132C284.64 238.132 283.595 236.933 283.595 235.085C283.595 233.237 284.64 232.038 286.257 232.038C287.874 232.038 288.919 233.237 288.919 235.085C288.919 236.933 287.874 238.132 286.257 238.132ZM284.541 235.085C284.541 236.449 285.168 237.274 286.257 237.274C287.335 237.274 287.973 236.449 287.973 235.085C287.973 233.721 287.335 232.896 286.257 232.896C285.168 232.896 284.541 233.721 284.541 235.085ZM293.684 233.963C293.552 233.292 292.892 232.896 292.232 232.896C291.572 232.896 291.044 233.237 291.044 233.798C291.054 234.37 291.792 234.612 292.452 234.755C293.783 235.008 294.74 235.382 294.74 236.515C294.74 237.637 293.585 238.132 292.474 238.132C291.099 238.132 290.043 237.373 289.955 236.174L290.901 236.108C291.011 236.812 291.583 237.274 292.474 237.274C293.068 237.274 293.794 237.076 293.794 236.471C293.794 235.767 292.958 235.69 292.287 235.525C291.209 235.272 290.109 234.964 290.109 233.853C290.098 232.742 291 232.038 292.331 232.038C293.497 232.038 294.443 232.775 294.63 233.897L293.684 233.963ZM296.445 230.85H297.347V232.17H298.898V232.973H297.347V236.46C297.347 236.955 297.589 237.197 298.051 237.197H298.887V238H298.051C297.017 238 296.445 237.45 296.445 236.46V232.973H295.587V232.17H296.445V230.85Z" fill="#474747" fill-opacity="0.65"/>
<path d="M256.96 248.19C258.599 248.19 259.622 249.092 259.622 250.544C259.622 251.479 258.995 252.161 258.28 252.359C259.061 252.491 259.402 252.887 259.479 253.701L259.688 256H258.753L258.566 253.789C258.5 253.085 258.016 252.843 256.872 252.843H254.936V256H254.012V248.19H256.96ZM254.936 251.941H256.96C258.049 251.941 258.654 251.435 258.654 250.522C258.654 249.609 258.049 249.092 256.96 249.092H254.936V251.941ZM260.725 253.085C260.725 251.237 261.77 250.038 263.387 250.038C264.685 250.038 265.818 250.907 265.917 252.964L265.928 253.371H261.682C261.77 254.57 262.375 255.274 263.387 255.274C264.025 255.274 264.597 254.9 264.861 254.284L265.829 254.35C265.488 255.45 264.509 256.132 263.387 256.132C261.77 256.132 260.725 254.933 260.725 253.085ZM261.704 252.568H264.938C264.773 251.336 264.113 250.896 263.387 250.896C262.452 250.896 261.847 251.512 261.704 252.568ZM271.853 256H270.995V255.01C270.698 255.769 270.005 256.132 269.235 256.132C267.937 256.132 267.299 255.153 267.299 253.921V250.17H268.201V253.646C268.201 254.735 268.564 255.329 269.422 255.329C270.346 255.329 270.951 254.735 270.951 253.646V250.17H271.853V256ZM277.033 251.963C276.901 251.292 276.241 250.896 275.581 250.896C274.921 250.896 274.393 251.237 274.393 251.798C274.404 252.37 275.141 252.612 275.801 252.755C277.132 253.008 278.089 253.382 278.089 254.515C278.089 255.637 276.934 256.132 275.823 256.132C274.448 256.132 273.392 255.373 273.304 254.174L274.25 254.108C274.36 254.812 274.932 255.274 275.823 255.274C276.417 255.274 277.143 255.076 277.143 254.471C277.143 253.767 276.307 253.69 275.636 253.525C274.558 253.272 273.458 252.964 273.458 251.853C273.447 250.742 274.349 250.038 275.68 250.038C276.846 250.038 277.792 250.775 277.979 251.897L277.033 251.963ZM280.071 254.46C280.071 254.933 280.478 255.417 281.336 255.373C282.304 255.329 283.063 254.68 283.063 253.591V253.184L281.666 253.437C280.797 253.602 280.071 253.613 280.071 254.46ZM279.125 254.46C279.125 253.239 280.049 252.931 281.314 252.7L283.041 252.392C283.041 251.402 282.48 250.896 281.6 250.896C280.874 250.896 280.346 251.336 280.203 251.963L279.224 251.886C279.455 250.775 280.39 250.038 281.6 250.038C283.008 250.038 283.943 250.852 283.943 252.48V256H283.129L283.096 255.054C282.843 255.626 282.139 256.11 281.215 256.132C280.06 256.11 279.125 255.494 279.125 254.46ZM285.743 248.19H286.645V250.962C286.975 250.368 287.591 250.038 288.449 250.038C290.132 250.038 290.913 251.468 290.913 253.085C290.913 254.702 290.132 256.132 288.449 256.132C287.547 256.132 286.92 255.758 286.59 255.142L286.557 256H285.743V248.19ZM286.568 253.085C286.568 254.196 287.063 255.274 288.262 255.274C289.483 255.274 289.967 254.218 289.967 253.085C289.967 251.919 289.483 250.863 288.262 250.863C287.063 250.863 286.568 251.93 286.568 253.085ZM292.382 248.19H293.284V254.834C293.284 255.087 293.405 255.197 293.658 255.197H294.153V256H293.526C292.833 256 292.382 255.549 292.382 254.878V248.19ZM295.003 253.085C295.003 251.237 296.048 250.038 297.665 250.038C298.963 250.038 300.096 250.907 300.195 252.964L300.206 253.371H295.96C296.048 254.57 296.653 255.274 297.665 255.274C298.303 255.274 298.875 254.9 299.139 254.284L300.107 254.35C299.766 255.45 298.787 256.132 297.665 256.132C296.048 256.132 295.003 254.933 295.003 253.085ZM295.982 252.568H299.216C299.051 251.336 298.391 250.896 297.665 250.896C296.73 250.896 296.125 251.512 295.982 252.568ZM301.245 254.823H302.411V256H301.245V254.823ZM303.447 254.823H304.613V256H303.447V254.823Z" fill="#474747" fill-opacity="0.65"/>
<path d="M259.996 272.48V273.812H257.416V281H255.904V273.812H253.312V272.48H259.996ZM263.069 281.144C261.185 281.144 259.949 279.836 259.949 277.82C259.949 275.804 261.185 274.496 263.069 274.496C264.953 274.496 266.189 275.804 266.189 277.82C266.189 279.836 264.953 281.144 263.069 281.144ZM261.485 277.82C261.485 279.14 262.061 279.92 263.069 279.92C264.077 279.92 264.653 279.14 264.653 277.82C264.653 276.5 264.077 275.72 263.069 275.72C262.061 275.72 261.485 276.5 261.485 277.82ZM267.967 273.2H269.455V274.64H271.135V275.804H269.455V279.068C269.455 279.572 269.695 279.824 270.175 279.824H271.135V281H269.947C268.651 281 267.967 280.34 267.967 279.068V275.804H266.971V274.64H267.967V273.2ZM273.519 279.272C273.519 279.716 273.891 280.148 274.659 280.112C275.547 280.076 276.219 279.44 276.207 278.336V278.072L274.971 278.312C274.167 278.468 273.519 278.516 273.519 279.272ZM271.983 279.308C271.983 278.06 272.907 277.664 274.299 277.4L276.183 277.052V277.04C276.183 276.056 275.703 275.6 274.899 275.6C274.227 275.6 273.759 276.008 273.627 276.656L272.091 276.572C272.343 275.288 273.387 274.496 274.899 274.496C276.639 274.496 277.683 275.396 277.683 277.22V281H276.339L276.303 280.064C276.039 280.64 275.343 281.12 274.251 281.144C273.003 281.144 271.983 280.436 271.983 279.308ZM279.367 272.48H280.855V279.38C280.855 279.68 281.011 279.824 281.299 279.824H281.803V281H280.927C279.991 281 279.367 280.412 279.367 279.44V272.48Z" fill="#393939" fill-opacity="0.9"/>
<path d="M332.637 194.411C333.473 194.411 333.836 194.037 333.836 193.19H334.562V201H333.638V195.192H332.021V194.411H332.637ZM339.2 201.176C337.308 201.176 336.109 199.603 336.109 197.106C336.109 194.587 337.308 193.014 339.2 193.014C341.092 193.014 342.291 194.587 342.291 197.106C342.291 199.603 341.092 201.176 339.2 201.176ZM337.077 197.106C337.077 199.13 337.847 200.274 339.2 200.274C340.553 200.274 341.323 199.13 341.323 197.106C341.323 195.071 340.553 193.916 339.2 193.916C337.847 193.916 337.077 195.071 337.077 197.106ZM349.41 193.014H350.433L344.735 201.132H343.712L349.41 193.014ZM343.349 195.06C343.349 194.015 344.042 193.179 344.922 193.179C345.802 193.179 346.495 194.015 346.495 195.06C346.495 196.116 345.802 196.952 344.922 196.952C344.042 196.952 343.349 196.116 343.349 195.06ZM344.163 195.06C344.163 195.72 344.46 196.127 344.922 196.127C345.384 196.127 345.692 195.72 345.692 195.06C345.692 194.411 345.384 194.004 344.922 194.004C344.46 194.004 344.163 194.411 344.163 195.06ZM347.595 199.119C347.595 198.063 348.288 197.227 349.168 197.227C350.048 197.227 350.741 198.063 350.741 199.119C350.741 200.164 350.048 201 349.168 201C348.288 201 347.595 200.164 347.595 199.119ZM348.409 199.119C348.409 199.768 348.706 200.175 349.168 200.175C349.63 200.175 349.938 199.768 349.938 199.119C349.938 198.459 349.63 198.052 349.168 198.052C348.706 198.052 348.409 198.459 348.409 199.119Z" fill="#474747" fill-opacity="0.65"/>
<path d="M334.695 213.522C334.904 212.07 335.927 211.014 337.489 211.014C338.919 211.014 339.964 211.96 339.964 213.236C339.964 214.358 339.073 215.139 337.885 215.865C337.225 216.25 335.729 217.306 335.696 218.098H340.03V219H334.552C334.552 216.712 336.191 215.843 337.555 214.996C338.402 214.457 338.996 213.852 338.996 213.236C338.996 212.466 338.38 211.916 337.489 211.916C336.532 211.916 335.872 212.51 335.663 213.588L334.695 213.522ZM347.143 211.014H348.166L342.468 219.132H341.445L347.143 211.014ZM341.082 213.06C341.082 212.015 341.775 211.179 342.655 211.179C343.535 211.179 344.228 212.015 344.228 213.06C344.228 214.116 343.535 214.952 342.655 214.952C341.775 214.952 341.082 214.116 341.082 213.06ZM341.896 213.06C341.896 213.72 342.193 214.127 342.655 214.127C343.117 214.127 343.425 213.72 343.425 213.06C343.425 212.411 343.117 212.004 342.655 212.004C342.193 212.004 341.896 212.411 341.896 213.06ZM345.328 217.119C345.328 216.063 346.021 215.227 346.901 215.227C347.781 215.227 348.474 216.063 348.474 217.119C348.474 218.164 347.781 219 346.901 219C346.021 219 345.328 218.164 345.328 217.119ZM346.142 217.119C346.142 217.768 346.439 218.175 346.901 218.175C347.363 218.175 347.671 217.768 347.671 217.119C347.671 216.459 347.363 216.052 346.901 216.052C346.439 216.052 346.142 216.459 346.142 217.119Z" fill="#474747" fill-opacity="0.65"/>
<path d="M334.524 230.19H340.057V231.059C338.484 233.061 337.384 235.437 337.384 238H336.416C336.416 235.459 337.439 233.083 339.012 231.092H334.524V230.19ZM346.907 230.014H347.93L342.232 238.132H341.209L346.907 230.014ZM340.846 232.06C340.846 231.015 341.539 230.179 342.419 230.179C343.299 230.179 343.992 231.015 343.992 232.06C343.992 233.116 343.299 233.952 342.419 233.952C341.539 233.952 340.846 233.116 340.846 232.06ZM341.66 232.06C341.66 232.72 341.957 233.127 342.419 233.127C342.881 233.127 343.189 232.72 343.189 232.06C343.189 231.411 342.881 231.004 342.419 231.004C341.957 231.004 341.66 231.411 341.66 232.06ZM345.092 236.119C345.092 235.063 345.785 234.227 346.665 234.227C347.545 234.227 348.238 235.063 348.238 236.119C348.238 237.164 347.545 238 346.665 238C345.785 238 345.092 237.164 345.092 236.119ZM345.906 236.119C345.906 236.768 346.203 237.175 346.665 237.175C347.127 237.175 347.435 236.768 347.435 236.119C347.435 235.459 347.127 235.052 346.665 235.052C346.203 235.052 345.906 235.459 345.906 236.119Z" fill="#474747" fill-opacity="0.65"/>
<path d="M337.157 251.402C337.927 251.413 338.807 251.05 338.807 250.049C338.807 249.356 338.169 248.916 337.157 248.916C336.343 248.916 335.76 249.323 335.65 249.95L334.693 249.884C334.836 248.795 335.859 248.014 337.157 248.014C338.697 248.014 339.775 248.85 339.775 250.049C339.775 250.918 339.28 251.512 338.334 251.776C339.434 252.095 340.039 252.854 340.039 253.855C340.039 255.219 338.851 256.176 337.157 256.176C335.606 256.176 334.484 255.274 334.407 253.998L335.364 253.932C335.452 254.889 336.365 255.274 337.157 255.274C338.103 255.274 339.082 254.834 339.082 253.778C339.082 252.733 338.103 252.271 337.157 252.293L336.552 252.304V251.391L337.157 251.402ZM347.288 248.014H348.311L342.613 256.132H341.59L347.288 248.014ZM341.227 250.06C341.227 249.015 341.92 248.179 342.8 248.179C343.68 248.179 344.373 249.015 344.373 250.06C344.373 251.116 343.68 251.952 342.8 251.952C341.92 251.952 341.227 251.116 341.227 250.06ZM342.041 250.06C342.041 250.72 342.338 251.127 342.8 251.127C343.262 251.127 343.57 250.72 343.57 250.06C343.57 249.411 343.262 249.004 342.8 249.004C342.338 249.004 342.041 249.411 342.041 250.06ZM345.473 254.119C345.473 253.063 346.166 252.227 347.046 252.227C347.926 252.227 348.619 253.063 348.619 254.119C348.619 255.164 347.926 256 347.046 256C346.166 256 345.473 255.164 345.473 254.119ZM346.287 254.119C346.287 254.768 346.584 255.175 347.046 255.175C347.508 255.175 347.816 254.768 347.816 254.119C347.816 253.459 347.508 253.052 347.046 253.052C346.584 253.052 346.287 253.459 346.287 254.119Z" fill="#474747" fill-opacity="0.65"/>
<path d="M336.629 281.192C334.601 281.192 333.233 280.22 333.233 278.66C333.233 277.58 333.893 276.752 335.009 276.38C334.133 276.068 333.641 275.48 333.641 274.628C333.641 273.26 334.853 272.288 336.629 272.288C338.429 272.288 339.617 273.26 339.617 274.628C339.617 275.48 339.125 276.068 338.249 276.38C339.377 276.764 340.025 277.592 340.025 278.66C340.025 280.22 338.669 281.192 336.629 281.192ZM334.805 278.468C334.805 279.32 335.525 279.86 336.629 279.86C337.745 279.86 338.465 279.32 338.465 278.468C338.465 277.616 337.745 277.064 336.629 277.064C335.525 277.064 334.805 277.616 334.805 278.468ZM335.201 274.736C335.201 275.42 335.753 275.852 336.629 275.852C337.517 275.852 338.069 275.42 338.069 274.736C338.069 274.052 337.517 273.62 336.629 273.62C335.753 273.62 335.201 274.052 335.201 274.736ZM347.792 272.288H349.352L343.136 281.144H341.576L347.792 272.288ZM341.072 274.556C341.072 273.38 341.9 272.468 342.932 272.468C343.976 272.468 344.792 273.38 344.792 274.556C344.792 275.732 343.976 276.644 342.932 276.644C341.9 276.644 341.072 275.732 341.072 274.556ZM342.188 274.556C342.188 275.24 342.476 275.672 342.932 275.672C343.4 275.672 343.688 275.24 343.688 274.556C343.688 273.86 343.4 273.44 342.932 273.44C342.476 273.44 342.188 273.86 342.188 274.556ZM346.076 278.912C346.076 277.736 346.904 276.824 347.936 276.824C348.98 276.824 349.796 277.736 349.796 278.912C349.796 280.088 348.98 281 347.936 281C346.904 281 346.076 280.088 346.076 278.912ZM347.192 278.912C347.192 279.596 347.468 280.028 347.936 280.028C348.404 280.028 348.692 279.596 348.692 278.912C348.692 278.216 348.404 277.796 347.936 277.796C347.468 277.796 347.192 278.216 347.192 278.912Z" fill="#393939" fill-opacity="0.9"/>
<path d="M376.324 193.19V198.492H377.226V199.394H376.324V201H375.4V199.394H371.352V198.492L375.345 193.19H376.324ZM372.496 198.492H375.4V194.609L372.496 198.492ZM384.079 193.014H385.102L379.404 201.132H378.381L384.079 193.014ZM378.018 195.06C378.018 194.015 378.711 193.179 379.591 193.179C380.471 193.179 381.164 194.015 381.164 195.06C381.164 196.116 380.471 196.952 379.591 196.952C378.711 196.952 378.018 196.116 378.018 195.06ZM378.832 195.06C378.832 195.72 379.129 196.127 379.591 196.127C380.053 196.127 380.361 195.72 380.361 195.06C380.361 194.411 380.053 194.004 379.591 194.004C379.129 194.004 378.832 194.411 378.832 195.06ZM382.264 199.119C382.264 198.063 382.957 197.227 383.837 197.227C384.717 197.227 385.41 198.063 385.41 199.119C385.41 200.164 384.717 201 383.837 201C382.957 201 382.264 200.164 382.264 199.119ZM383.078 199.119C383.078 199.768 383.375 200.175 383.837 200.175C384.299 200.175 384.607 199.768 384.607 199.119C384.607 198.459 384.299 198.052 383.837 198.052C383.375 198.052 383.078 198.459 383.078 199.119Z" fill="#474747" fill-opacity="0.65"/>
<path d="M371.356 212.411C372.192 212.411 372.555 212.037 372.555 211.19H373.281V219H372.357V213.192H370.74V212.411H371.356ZM375.18 212.411C376.016 212.411 376.379 212.037 376.379 211.19H377.105V219H376.181V213.192H374.564V212.411H375.18ZM384.691 211.014H385.714L380.016 219.132H378.993L384.691 211.014ZM378.63 213.06C378.63 212.015 379.323 211.179 380.203 211.179C381.083 211.179 381.776 212.015 381.776 213.06C381.776 214.116 381.083 214.952 380.203 214.952C379.323 214.952 378.63 214.116 378.63 213.06ZM379.444 213.06C379.444 213.72 379.741 214.127 380.203 214.127C380.665 214.127 380.973 213.72 380.973 213.06C380.973 212.411 380.665 212.004 380.203 212.004C379.741 212.004 379.444 212.411 379.444 213.06ZM382.876 217.119C382.876 216.063 383.569 215.227 384.449 215.227C385.329 215.227 386.022 216.063 386.022 217.119C386.022 218.164 385.329 219 384.449 219C383.569 219 382.876 218.164 382.876 217.119ZM383.69 217.119C383.69 217.768 383.987 218.175 384.449 218.175C384.911 218.175 385.219 217.768 385.219 217.119C385.219 216.459 384.911 216.052 384.449 216.052C383.987 216.052 383.69 216.459 383.69 217.119Z" fill="#474747" fill-opacity="0.65"/>
<path d="M376.535 230.19V231.092H373.059L372.729 233.512C373.103 233.061 373.807 232.797 374.489 232.797C375.996 232.797 377.063 233.93 377.063 235.492C377.063 237.065 375.908 238.176 374.346 238.176C372.795 238.176 371.629 237.274 371.519 235.998L372.487 235.932C372.608 236.779 373.4 237.274 374.346 237.274C375.391 237.274 376.095 236.537 376.095 235.492C376.095 234.381 375.38 233.677 374.247 233.677C373.521 233.677 372.905 234.007 372.652 234.579H371.651L372.256 230.19H376.535ZM384.176 230.014H385.199L379.501 238.132H378.478L384.176 230.014ZM378.115 232.06C378.115 231.015 378.808 230.179 379.688 230.179C380.568 230.179 381.261 231.015 381.261 232.06C381.261 233.116 380.568 233.952 379.688 233.952C378.808 233.952 378.115 233.116 378.115 232.06ZM378.929 232.06C378.929 232.72 379.226 233.127 379.688 233.127C380.15 233.127 380.458 232.72 380.458 232.06C380.458 231.411 380.15 231.004 379.688 231.004C379.226 231.004 378.929 231.411 378.929 232.06ZM382.361 236.119C382.361 235.063 383.054 234.227 383.934 234.227C384.814 234.227 385.507 235.063 385.507 236.119C385.507 237.164 384.814 238 383.934 238C383.054 238 382.361 237.164 382.361 236.119ZM383.175 236.119C383.175 236.768 383.472 237.175 383.934 237.175C384.396 237.175 384.704 236.768 384.704 236.119C384.704 235.459 384.396 235.052 383.934 235.052C383.472 235.052 383.175 235.459 383.175 236.119Z" fill="#474747" fill-opacity="0.65"/>
<path d="M376.324 248.19V253.492H377.226V254.394H376.324V256H375.4V254.394H371.352V253.492L375.345 248.19H376.324ZM372.496 253.492H375.4V249.609L372.496 253.492ZM384.079 248.014H385.102L379.404 256.132H378.381L384.079 248.014ZM378.018 250.06C378.018 249.015 378.711 248.179 379.591 248.179C380.471 248.179 381.164 249.015 381.164 250.06C381.164 251.116 380.471 251.952 379.591 251.952C378.711 251.952 378.018 251.116 378.018 250.06ZM378.832 250.06C378.832 250.72 379.129 251.127 379.591 251.127C380.053 251.127 380.361 250.72 380.361 250.06C380.361 249.411 380.053 249.004 379.591 249.004C379.129 249.004 378.832 249.411 378.832 250.06ZM382.264 254.119C382.264 253.063 382.957 252.227 383.837 252.227C384.717 252.227 385.41 253.063 385.41 254.119C385.41 255.164 384.717 256 383.837 256C382.957 256 382.264 255.164 382.264 254.119ZM383.078 254.119C383.078 254.768 383.375 255.175 383.837 255.175C384.299 255.175 384.607 254.768 384.607 254.119C384.607 253.459 384.299 253.052 383.837 253.052C383.375 253.052 383.078 253.459 383.078 254.119Z" fill="#474747" fill-opacity="0.65"/>
<path d="M369.644 273.944C370.652 273.944 371.108 273.488 371.12 272.48H372.296V281H370.796V275.108H368.972V273.944H369.644ZM373.914 275.12C374.094 273.488 375.306 272.288 377.106 272.288C378.798 272.288 380.034 273.356 380.034 274.808C380.034 276.092 379.014 276.884 377.802 277.604C377.274 277.904 375.702 278.9 375.654 279.668H380.082V281H373.818C373.818 278.456 375.414 277.4 377.01 276.452C377.874 275.912 378.474 275.396 378.474 274.796C378.474 274.112 377.91 273.62 377.106 273.62C376.242 273.62 375.654 274.184 375.474 275.216L373.914 275.12ZM387.837 272.288H389.397L383.181 281.144H381.621L387.837 272.288ZM381.117 274.556C381.117 273.38 381.945 272.468 382.977 272.468C384.021 272.468 384.837 273.38 384.837 274.556C384.837 275.732 384.021 276.644 382.977 276.644C381.945 276.644 381.117 275.732 381.117 274.556ZM382.233 274.556C382.233 275.24 382.521 275.672 382.977 275.672C383.445 275.672 383.733 275.24 383.733 274.556C383.733 273.86 383.445 273.44 382.977 273.44C382.521 273.44 382.233 273.86 382.233 274.556ZM386.121 278.912C386.121 277.736 386.949 276.824 387.981 276.824C389.025 276.824 389.841 277.736 389.841 278.912C389.841 280.088 389.025 281 387.981 281C386.949 281 386.121 280.088 386.121 278.912ZM387.237 278.912C387.237 279.596 387.513 280.028 387.981 280.028C388.449 280.028 388.737 279.596 388.737 278.912C388.737 278.216 388.449 277.796 387.981 277.796C387.513 277.796 387.237 278.216 387.237 278.912Z" fill="#393939" fill-opacity="0.9"/>
<path d="M256.927 172.19C258.775 172.19 259.908 173.158 259.908 174.72C259.908 176.293 258.775 177.272 256.927 177.272H255.442V180H253.836V172.19H256.927ZM255.442 175.908H256.839C257.752 175.908 258.258 175.501 258.258 174.72C258.258 173.95 257.752 173.554 256.839 173.554H255.442V175.908ZM264.582 172.19C266.199 172.19 267.376 173.037 267.376 174.533C267.376 175.523 266.793 176.183 265.979 176.414C266.804 176.513 267.167 176.92 267.244 177.756L267.442 180H265.825L265.671 178.009C265.616 177.338 265.242 177.118 264.318 177.118H262.811V180H261.205V172.19H264.582ZM262.811 175.754H264.373C265.242 175.754 265.726 175.369 265.726 174.654C265.726 173.95 265.242 173.554 264.373 173.554H262.811V175.754ZM272.058 180.176C269.759 180.176 268.318 178.603 268.318 176.106C268.318 173.587 269.759 172.014 272.058 172.014C274.357 172.014 275.798 173.587 275.798 176.106C275.798 178.603 274.357 180.176 272.058 180.176ZM269.968 176.106C269.968 177.844 270.716 178.812 272.058 178.812C273.411 178.812 274.148 177.844 274.148 176.106C274.148 174.357 273.411 173.378 272.058 173.378C270.716 173.378 269.968 174.357 269.968 176.106ZM279.604 172.19C282.123 172.19 283.531 173.598 283.531 176.106C283.531 178.603 282.156 180 279.67 180H276.942V172.19H279.604ZM278.548 178.636H279.604C281.155 178.636 281.903 177.811 281.903 176.106C281.903 174.379 281.155 173.554 279.604 173.554H278.548V178.636ZM291.042 177.184C291.042 179.021 289.81 180.176 287.852 180.176C285.894 180.176 284.662 179.021 284.662 177.184V172.179H286.268V177.184C286.268 178.251 286.851 178.812 287.852 178.812C288.853 178.812 289.436 178.251 289.436 177.184V172.179H291.042V177.184ZM299.294 177.371C298.942 179.076 297.776 180.176 295.917 180.176C293.607 180.176 292.177 178.416 292.177 176.106C292.177 173.796 293.607 172.014 295.917 172.014C297.699 172.014 298.887 173.07 299.25 174.687L297.589 174.775C297.391 173.928 296.797 173.378 295.884 173.378C294.465 173.378 293.827 174.577 293.827 176.106C293.827 177.624 294.476 178.812 295.884 178.812C296.841 178.812 297.435 178.196 297.611 177.283L299.294 177.371ZM306.124 172.19V173.554H303.781V180H302.175V173.554H299.832V172.19H306.124Z" fill="#5E5ADB"/>
<path d="M328.78 180.16C326.7 180.16 325.44 178.54 325.44 176.46C325.44 174.37 326.7 172.74 328.78 172.74C330.87 172.74 332.12 174.37 332.12 176.46C332.12 177.73 331.65 178.84 330.8 179.5L331.71 180.65H330.63L330.07 179.93C329.69 180.08 329.25 180.16 328.78 180.16ZM326.74 176.46C326.74 177.85 327.39 179.05 328.78 179.05C328.98 179.05 329.15 179.03 329.31 178.98L328.33 177.73H329.41L330.04 178.55C330.56 178.09 330.82 177.31 330.82 176.46C330.82 175.06 330.18 173.85 328.78 173.85C327.39 173.85 326.74 175.06 326.74 176.46ZM333.388 174.12C334.228 174.12 334.608 173.74 334.618 172.9H335.598V180H334.348V175.09H332.828V174.12H333.388ZM336.826 176.55H340.216V177.6H336.826V176.55ZM341.185 175.1C341.335 173.74 342.345 172.74 343.845 172.74C345.255 172.74 346.285 173.63 346.285 174.84C346.285 175.91 345.435 176.57 344.425 177.17C343.985 177.42 342.675 178.25 342.635 178.89H346.325V180H341.105C341.105 177.88 342.435 177 343.765 176.21C344.485 175.76 344.985 175.33 344.985 174.83C344.985 174.26 344.515 173.85 343.845 173.85C343.125 173.85 342.635 174.32 342.485 175.18L341.185 175.1ZM349.848 175.75C350.438 175.76 351.088 175.48 351.088 174.71C351.088 174.19 350.608 173.85 349.848 173.85C349.208 173.85 348.768 174.16 348.698 174.64L347.408 174.57C347.538 173.48 348.538 172.74 349.868 172.74C351.388 172.74 352.388 173.47 352.388 174.59C352.388 175.39 351.898 175.92 350.978 176.16C352.038 176.42 352.628 177.1 352.628 178.05C352.628 179.32 351.528 180.16 349.868 180.16C348.348 180.16 347.278 179.3 347.208 178.02L348.498 177.96C348.568 178.72 349.268 179.05 349.878 179.05C350.598 179.05 351.328 178.7 351.328 177.88C351.328 177.07 350.588 176.7 349.848 176.72L349.268 176.73V175.74L349.848 175.75Z" fill="#ABA8FF"/>
<path d="M365.78 180.16C363.7 180.16 362.44 178.54 362.44 176.46C362.44 174.37 363.7 172.74 365.78 172.74C367.87 172.74 369.12 174.37 369.12 176.46C369.12 177.73 368.65 178.84 367.8 179.5L368.71 180.65H367.63L367.07 179.93C366.69 180.08 366.25 180.16 365.78 180.16ZM363.74 176.46C363.74 177.85 364.39 179.05 365.78 179.05C365.98 179.05 366.15 179.03 366.31 178.98L365.33 177.73H366.41L367.04 178.55C367.56 178.09 367.82 177.31 367.82 176.46C367.82 175.06 367.18 173.85 365.78 173.85C364.39 173.85 363.74 175.06 363.74 176.46ZM370.108 175.1C370.258 173.74 371.268 172.74 372.768 172.74C374.178 172.74 375.208 173.63 375.208 174.84C375.208 175.91 374.358 176.57 373.348 177.17C372.908 177.42 371.598 178.25 371.558 178.89H375.248V180H370.028C370.028 177.88 371.358 177 372.688 176.21C373.408 175.76 373.908 175.33 373.908 174.83C373.908 174.26 373.438 173.85 372.768 173.85C372.048 173.85 371.558 174.32 371.408 175.18L370.108 175.1ZM376.111 176.55H379.501V177.6H376.111V176.55ZM380.47 175.1C380.62 173.74 381.63 172.74 383.13 172.74C384.54 172.74 385.57 173.63 385.57 174.84C385.57 175.91 384.72 176.57 383.71 177.17C383.27 177.42 381.96 178.25 381.92 178.89H385.61V180H380.39C380.39 177.88 381.72 177 383.05 176.21C383.77 175.76 384.27 175.33 384.27 174.83C384.27 174.26 383.8 173.85 383.13 173.85C382.41 173.85 381.92 174.32 381.77 175.18L380.47 175.1ZM389.133 175.75C389.723 175.76 390.373 175.48 390.373 174.71C390.373 174.19 389.893 173.85 389.133 173.85C388.493 173.85 388.053 174.16 387.983 174.64L386.693 174.57C386.823 173.48 387.823 172.74 389.153 172.74C390.673 172.74 391.673 173.47 391.673 174.59C391.673 175.39 391.183 175.92 390.263 176.16C391.323 176.42 391.913 177.1 391.913 178.05C391.913 179.32 390.813 180.16 389.153 180.16C387.633 180.16 386.563 179.3 386.493 178.02L387.783 177.96C387.853 178.72 388.553 179.05 389.163 179.05C389.883 179.05 390.613 178.7 390.613 177.88C390.613 177.07 389.873 176.7 389.133 176.72L388.553 176.73V175.74L389.133 175.75Z" fill="#ABA8FF"/>
<path d="M321 152V310" stroke="#F6F6F6"/>
<path d="M359 152V310" stroke="#F6F6F6"/>
<path d="M229 152L417 152" stroke="#E1E1E1"/>
<path d="M229 152H279" stroke="#5E5ADB" stroke-width="3"/>
<circle cx="321" cy="422" r="14.7" stroke="#D3D2F5" stroke-width="1.4"/>
<circle cx="355" cy="422" r="11" fill="#5E5ADB"/>
<circle cx="321" cy="422" r="10.5" fill="white" stroke="#CECECE"/>
<circle cx="287" cy="422" r="11" fill="#282828"/>
<g filter="url(#filter1_d_1_2943)">
<rect x="501" y="15" width="125" height="33" rx="2" fill="white"/>
<rect x="501.25" y="15.25" width="124.5" height="32.5" rx="1.75" stroke="#D7D7D7" stroke-width="0.5"/>
</g>
<rect x="504.15" y="18.15" width="49.7" height="26.7" rx="0.85" fill="#EDEDED" fill-opacity="0.2" stroke="#D7D7D7" stroke-width="0.3"/>
<path d="M580 37L577.1 34.1M573.333 28.3333V32.3333M571.333 30.3333H575.333M578.667 30.3333C578.667 33.2789 576.279 35.6667 573.333 35.6667C570.388 35.6667 568 33.2789 568 30.3333C568 27.3878 570.388 25 573.333 25C576.279 25 578.667 27.3878 578.667 30.3333Z" stroke="#7B7B7B" stroke-linecap="round" stroke-linejoin="round"/>
<path d="M517.053 28.213C518.041 28.213 518.47 27.771 518.47 26.77H519.328V36H518.236V29.136H516.325V28.213H517.053ZM524.81 36.208C522.574 36.208 521.157 34.349 521.157 31.398C521.157 28.421 522.574 26.562 524.81 26.562C527.046 26.562 528.463 28.421 528.463 31.398C528.463 34.349 527.046 36.208 524.81 36.208ZM522.301 31.398C522.301 33.79 523.211 35.142 524.81 35.142C526.409 35.142 527.319 33.79 527.319 31.398C527.319 28.993 526.409 27.628 524.81 27.628C523.211 27.628 522.301 28.993 522.301 31.398ZM533.392 36.208C531.156 36.208 529.739 34.349 529.739 31.398C529.739 28.421 531.156 26.562 533.392 26.562C535.628 26.562 537.045 28.421 537.045 31.398C537.045 34.349 535.628 36.208 533.392 36.208ZM530.883 31.398C530.883 33.79 531.793 35.142 533.392 35.142C534.991 35.142 535.901 33.79 535.901 31.398C535.901 28.993 534.991 27.628 533.392 27.628C531.793 27.628 530.883 28.993 530.883 31.398ZM545.458 26.562H546.667L539.933 36.156H538.724L545.458 26.562ZM538.295 28.98C538.295 27.745 539.114 26.757 540.154 26.757C541.194 26.757 542.013 27.745 542.013 28.98C542.013 30.228 541.194 31.216 540.154 31.216C539.114 31.216 538.295 30.228 538.295 28.98ZM539.257 28.98C539.257 29.76 539.608 30.241 540.154 30.241C540.7 30.241 541.064 29.76 541.064 28.98C541.064 28.213 540.7 27.732 540.154 27.732C539.608 27.732 539.257 28.213 539.257 28.98ZM543.313 33.777C543.313 32.529 544.132 31.541 545.172 31.541C546.212 31.541 547.031 32.529 547.031 33.777C547.031 35.012 546.212 36 545.172 36C544.132 36 543.313 35.012 543.313 33.777ZM544.275 33.777C544.275 34.544 544.626 35.025 545.172 35.025C545.718 35.025 546.082 34.544 546.082 33.777C546.082 32.997 545.718 32.516 545.172 32.516C544.626 32.516 544.275 32.997 544.275 33.777Z" fill="#7B7B7B"/>
<path d="M612 37L609.1 34.1M603.333 30.3333H607.333M610.667 30.3333C610.667 33.2789 608.279 35.6667 605.333 35.6667C602.388 35.6667 600 33.2789 600 30.3333C600 27.3878 602.388 25 605.333 25C608.279 25 610.667 27.3878 610.667 30.3333Z" stroke="#7B7B7B" stroke-linecap="round" stroke-linejoin="round"/>
<path d="M591 21L591 41" stroke="#D7D7D7" stroke-linecap="round"/>
<rect x="-16" y="-16" width="220" height="120" rx="15" fill="#D5D5D5" fill-opacity="0.15"/>
<rect x="-16" y="121" width="220" height="189" rx="15" fill="#D5D5D5" fill-opacity="0.15"/>
<rect x="444" y="121" width="220" height="352" rx="15" fill="#D5D5D5" fill-opacity="0.15"/>
<rect x="-16" y="327" width="434" height="189" rx="15" fill="#D5D5D5" fill-opacity="0.15"/>
<rect x="229" y="-87" width="434" height="189" rx="15" fill="#D5D5D5" fill-opacity="0.15"/>
<path d="M27.476 27.416C28.988 27.416 29.672 26.732 29.69 25.22H31.454V38H29.204V29.162H26.468V27.416H27.476ZM44.9373 28.442H47.4753L44.1453 33.14L47.6013 38H45.0813L42.8313 34.652L40.5633 38H38.0433L41.5173 33.122L38.1873 28.442H40.7073L42.8313 31.61L44.9373 28.442ZM54.2123 27.416C55.7243 27.416 56.4083 26.732 56.4263 25.22H58.1903V38H55.9403V29.162H53.2043V27.416H54.2123Z" fill="#5E5ADB" fill-opacity="0.7"/>
<path d="M258.213 108.19C259.83 108.19 261.007 109.037 261.007 110.533C261.007 111.523 260.424 112.183 259.61 112.414C260.435 112.513 260.798 112.92 260.875 113.756L261.073 116H259.456L259.302 114.009C259.247 113.338 258.873 113.118 257.949 113.118H256.442V116H254.836V108.19H258.213ZM256.442 111.754H258.004C258.873 111.754 259.357 111.369 259.357 110.654C259.357 109.95 258.873 109.554 258.004 109.554H256.442V111.754ZM263.445 108.19H268.824V109.554H265.051V111.413H268.692V112.755H265.051V114.636H268.912V116H263.445V108.19ZM277.581 113.184C277.581 115.021 276.349 116.176 274.391 116.176C272.433 116.176 271.201 115.021 271.201 113.184V108.179H272.807V113.184C272.807 114.251 273.39 114.812 274.391 114.812C275.392 114.812 275.975 114.251 275.975 113.184V108.179H277.581V113.184ZM281.532 113.349C281.697 114.218 282.291 114.779 283.303 114.779C284.073 114.779 284.59 114.471 284.579 113.888C284.579 113.283 284.062 112.953 282.808 112.634C281.169 112.249 280.08 111.567 280.08 110.302C280.08 108.894 281.246 108.014 282.984 108.014C284.733 108.014 285.91 109.081 286.086 110.643L284.491 110.72C284.381 109.884 283.809 109.367 282.951 109.367C282.214 109.367 281.686 109.741 281.708 110.324C281.73 111.028 282.566 111.248 283.402 111.446C285.096 111.831 286.218 112.579 286.218 113.822C286.218 115.307 284.898 116.132 283.248 116.132C281.367 116.132 280.047 115.087 279.926 113.437L281.532 113.349ZM287.851 116L290.667 108.19H292.504L295.32 116H293.692L293.098 114.284H290.073L289.479 116H287.851ZM290.524 112.942H292.647L291.58 109.851L290.524 112.942ZM297.332 116V108.19H300.17C302.26 108.19 303.305 108.872 303.305 110.357C303.305 111.27 302.733 111.853 301.743 111.963C302.964 112.073 303.635 112.722 303.635 113.789C303.635 115.23 302.59 116 300.61 116H297.332ZM298.938 114.68H300.643C301.468 114.68 302.007 114.339 302.007 113.668C302.007 112.975 301.479 112.623 300.643 112.623H298.938V114.68ZM298.938 111.435H300.291C301.149 111.435 301.677 111.105 301.677 110.478C301.677 109.818 301.171 109.51 300.291 109.51H298.938V111.435ZM306.145 108.19H307.751V116H306.145V108.19ZM310.521 116V108.19H312.127V114.636H315.757V116H310.521ZM318.088 108.19H319.694V116H318.088V108.19ZM328.218 108.19V109.554H325.875V116H324.269V109.554H321.926V108.19H328.218ZM330.039 108.19H331.766L333.526 111.413L335.264 108.19H336.991L334.329 112.953V116H332.723V112.953L330.039 108.19ZM344.187 113.349C344.352 114.218 344.946 114.779 345.958 114.779C346.728 114.779 347.245 114.471 347.234 113.888C347.234 113.283 346.717 112.953 345.463 112.634C343.824 112.249 342.735 111.567 342.735 110.302C342.735 108.894 343.901 108.014 345.639 108.014C347.388 108.014 348.565 109.081 348.741 110.643L347.146 110.72C347.036 109.884 346.464 109.367 345.606 109.367C344.869 109.367 344.341 109.741 344.363 110.324C344.385 111.028 345.221 111.248 346.057 111.446C347.751 111.831 348.873 112.579 348.873 113.822C348.873 115.307 347.553 116.132 345.903 116.132C344.022 116.132 342.702 115.087 342.581 113.437L344.187 113.349ZM358.121 113.371C357.769 115.076 356.603 116.176 354.744 116.176C352.434 116.176 351.004 114.416 351.004 112.106C351.004 109.796 352.434 108.014 354.744 108.014C356.526 108.014 357.714 109.07 358.077 110.687L356.416 110.775C356.218 109.928 355.624 109.378 354.711 109.378C353.292 109.378 352.654 110.577 352.654 112.106C352.654 113.624 353.303 114.812 354.711 114.812C355.668 114.812 356.262 114.196 356.438 113.283L358.121 113.371ZM363.826 116.176C361.527 116.176 360.086 114.603 360.086 112.106C360.086 109.587 361.527 108.014 363.826 108.014C366.125 108.014 367.566 109.587 367.566 112.106C367.566 114.603 366.125 116.176 363.826 116.176ZM361.736 112.106C361.736 113.844 362.484 114.812 363.826 114.812C365.179 114.812 365.916 113.844 365.916 112.106C365.916 110.357 365.179 109.378 363.826 109.378C362.484 109.378 361.736 110.357 361.736 112.106ZM373.187 108.19C374.804 108.19 375.981 109.037 375.981 110.533C375.981 111.523 375.398 112.183 374.584 112.414C375.409 112.513 375.772 112.92 375.849 113.756L376.047 116H374.43L374.276 114.009C374.221 113.338 373.847 113.118 372.923 113.118H371.416V116H369.81V108.19H373.187ZM371.416 111.754H372.978C373.847 111.754 374.331 111.369 374.331 110.654C374.331 109.95 373.847 109.554 372.978 109.554H371.416V111.754ZM378.418 108.19H383.797V109.554H380.024V111.413H383.665V112.755H380.024V114.636H383.885V116H378.418V108.19ZM387.682 113.349C387.847 114.218 388.441 114.779 389.453 114.779C390.223 114.779 390.74 114.471 390.729 113.888C390.729 113.283 390.212 112.953 388.958 112.634C387.319 112.249 386.23 111.567 386.23 110.302C386.23 108.894 387.396 108.014 389.134 108.014C390.883 108.014 392.06 109.081 392.236 110.643L390.641 110.72C390.531 109.884 389.959 109.367 389.101 109.367C388.364 109.367 387.836 109.741 387.858 110.324C387.88 111.028 388.716 111.248 389.552 111.446C391.246 111.831 392.368 112.579 392.368 113.822C392.368 115.307 391.048 116.132 389.398 116.132C387.517 116.132 386.197 115.087 386.076 113.437L387.682 113.349Z" fill="#6B6B6B"/>
</g>
<defs>
<filter id="filter0_d_1_2943" x="222" y="115" width="202" height="202" filterUnits="userSpaceOnUse" color-interpolation-filters="sRGB">
<feFlood flood-opacity="0" result="BackgroundImageFix"/>
<feColorMatrix in="SourceAlpha" type="matrix" values="0 0 0 0 0 0 0 0 0 0 0 0 0 0 0 0 0 0 127 0" result="hardAlpha"/>
<feOffset/>
<feGaussianBlur stdDeviation="3"/>
<feComposite in2="hardAlpha" operator="out"/>
<feColorMatrix type="matrix" values="0 0 0 0 0 0 0 0 0 0 0 0 0 0 0 0 0 0 0.1 0"/>
<feBlend mode="normal" in2="BackgroundImageFix" result="effect1_dropShadow_1_2943"/>
<feBlend mode="normal" in="SourceGraphic" in2="effect1_dropShadow_1_2943" result="shape"/>
</filter>
<filter id="filter1_d_1_2943" x="501" y="15" width="125" height="37" filterUnits="userSpaceOnUse" color-interpolation-filters="sRGB">
<feFlood flood-opacity="0" result="BackgroundImageFix"/>
<feColorMatrix in="SourceAlpha" type="matrix" values="0 0 0 0 0 0 0 0 0 0 0 0 0 0 0 0 0 0 127 0" result="hardAlpha"/>
<feMorphology radius="4" operator="erode" in="SourceAlpha" result="effect1_dropShadow_1_2943"/>
<feOffset dy="4"/>
<feGaussianBlur stdDeviation="2"/>
<feComposite in2="hardAlpha" operator="out"/>
<feColorMatrix type="matrix" values="0 0 0 0 0 0 0 0 0 0 0 0 0 0 0 0 0 0 0.1 0"/>
<feBlend mode="normal" in2="BackgroundImageFix" result="effect1_dropShadow_1_2943"/>
<feBlend mode="normal" in="SourceGraphic" in2="effect1_dropShadow_1_2943" result="shape"/>
</filter>
<clipPath id="clip0_1_2943">
<rect width="641" height="456" fill="white"/>
</clipPath>
</defs>
</svg>
